<mxfile host="app.diagrams.net" modified="2023-09-25T14:46:59.564Z" agent="Mozilla/5.0 (Windows NT 10.0; Win64; x64) AppleWebKit/537.36 (KHTML, like Gecko) Chrome/114.0.0.0 YaBrowser/23.7.5.739 Yowser/2.5 Safari/537.36" etag="1nVo3BQGzt3BKQqkAWGm" version="21.8.2" type="device">
  <diagram id="4sWvGPuvU2RC_D0kTsu_" name="Страница — 1">
    <mxGraphModel dx="5544" dy="3164" grid="1" gridSize="10" guides="1" tooltips="1" connect="1" arrows="1" fold="1" page="1" pageScale="1" pageWidth="1920" pageHeight="1200" math="0" shadow="0">
      <root>
        <mxCell id="0" />
        <mxCell id="1" parent="0" />
        <mxCell id="-J07emT0B90vWcS-Yxma-1" value="&amp;nbsp;" style="edgeStyle=orthogonalEdgeStyle;rounded=0;orthogonalLoop=1;jettySize=auto;html=1;exitX=0.5;exitY=1;exitDx=0;exitDy=0;entryX=0.5;entryY=0;entryDx=0;entryDy=0;" parent="1" source="-J07emT0B90vWcS-Yxma-4" target="-J07emT0B90vWcS-Yxma-11" edge="1">
          <mxGeometry relative="1" as="geometry" />
        </mxCell>
        <mxCell id="-J07emT0B90vWcS-Yxma-2" style="edgeStyle=orthogonalEdgeStyle;rounded=0;orthogonalLoop=1;jettySize=auto;html=1;exitX=0;exitY=1;exitDx=0;exitDy=0;entryX=0.5;entryY=0;entryDx=0;entryDy=0;" parent="1" source="-J07emT0B90vWcS-Yxma-4" target="-J07emT0B90vWcS-Yxma-7" edge="1">
          <mxGeometry relative="1" as="geometry" />
        </mxCell>
        <mxCell id="-J07emT0B90vWcS-Yxma-3" style="edgeStyle=orthogonalEdgeStyle;rounded=0;orthogonalLoop=1;jettySize=auto;html=1;exitX=1;exitY=1;exitDx=0;exitDy=0;entryX=0.5;entryY=0;entryDx=0;entryDy=0;" parent="1" source="-J07emT0B90vWcS-Yxma-4" target="-J07emT0B90vWcS-Yxma-15" edge="1">
          <mxGeometry relative="1" as="geometry" />
        </mxCell>
        <mxCell id="-J07emT0B90vWcS-Yxma-4" value="ЗАО &quot;ПРОД&quot;" style="rounded=1;whiteSpace=wrap;html=1;" parent="1" vertex="1">
          <mxGeometry x="546" y="768" width="120" height="60" as="geometry" />
        </mxCell>
        <mxCell id="-J07emT0B90vWcS-Yxma-5" style="edgeStyle=orthogonalEdgeStyle;rounded=0;orthogonalLoop=1;jettySize=auto;html=1;exitX=0.75;exitY=1;exitDx=0;exitDy=0;entryX=0.5;entryY=0;entryDx=0;entryDy=0;entryPerimeter=0;" parent="1" source="-J07emT0B90vWcS-Yxma-7" target="-J07emT0B90vWcS-Yxma-9" edge="1">
          <mxGeometry relative="1" as="geometry" />
        </mxCell>
        <mxCell id="-J07emT0B90vWcS-Yxma-6" style="edgeStyle=orthogonalEdgeStyle;rounded=0;orthogonalLoop=1;jettySize=auto;html=1;exitX=0.25;exitY=1;exitDx=0;exitDy=0;" parent="1" source="-J07emT0B90vWcS-Yxma-7" target="-J07emT0B90vWcS-Yxma-8" edge="1">
          <mxGeometry relative="1" as="geometry" />
        </mxCell>
        <mxCell id="-J07emT0B90vWcS-Yxma-7" value="ПОСТАВЩИКИ" style="rounded=0;whiteSpace=wrap;html=1;" parent="1" vertex="1">
          <mxGeometry x="200" y="909" width="120" height="60" as="geometry" />
        </mxCell>
        <mxCell id="-J07emT0B90vWcS-Yxma-8" value="Поставщик Пендос" style="shape=umlActor;verticalLabelPosition=bottom;verticalAlign=top;html=1;outlineConnect=0;" parent="1" vertex="1">
          <mxGeometry x="140" y="999" width="30" height="60" as="geometry" />
        </mxCell>
        <mxCell id="-J07emT0B90vWcS-Yxma-9" value="Поставщик Россия" style="shape=umlActor;verticalLabelPosition=bottom;verticalAlign=top;html=1;outlineConnect=0;" parent="1" vertex="1">
          <mxGeometry x="350" y="999" width="30" height="60" as="geometry" />
        </mxCell>
        <mxCell id="-J07emT0B90vWcS-Yxma-10" style="edgeStyle=orthogonalEdgeStyle;rounded=0;orthogonalLoop=1;jettySize=auto;html=1;exitX=0.5;exitY=1;exitDx=0;exitDy=0;entryX=0.5;entryY=0;entryDx=0;entryDy=0;entryPerimeter=0;" parent="1" source="-J07emT0B90vWcS-Yxma-11" target="-J07emT0B90vWcS-Yxma-12" edge="1">
          <mxGeometry relative="1" as="geometry" />
        </mxCell>
        <mxCell id="-J07emT0B90vWcS-Yxma-11" value="ДОСТАВКА" style="rounded=0;whiteSpace=wrap;html=1;" parent="1" vertex="1">
          <mxGeometry x="546" y="898" width="120" height="60" as="geometry" />
        </mxCell>
        <mxCell id="-J07emT0B90vWcS-Yxma-12" value="Транспортная&lt;br&gt;компания" style="shape=umlActor;verticalLabelPosition=bottom;verticalAlign=top;html=1;outlineConnect=0;" parent="1" vertex="1">
          <mxGeometry x="591" y="999" width="30" height="60" as="geometry" />
        </mxCell>
        <mxCell id="-J07emT0B90vWcS-Yxma-13" style="edgeStyle=orthogonalEdgeStyle;rounded=0;orthogonalLoop=1;jettySize=auto;html=1;exitX=0.75;exitY=1;exitDx=0;exitDy=0;" parent="1" source="-J07emT0B90vWcS-Yxma-15" target="-J07emT0B90vWcS-Yxma-17" edge="1">
          <mxGeometry relative="1" as="geometry" />
        </mxCell>
        <mxCell id="-J07emT0B90vWcS-Yxma-14" style="edgeStyle=orthogonalEdgeStyle;rounded=0;orthogonalLoop=1;jettySize=auto;html=1;exitX=0.25;exitY=1;exitDx=0;exitDy=0;" parent="1" source="-J07emT0B90vWcS-Yxma-15" target="-J07emT0B90vWcS-Yxma-16" edge="1">
          <mxGeometry relative="1" as="geometry" />
        </mxCell>
        <mxCell id="-J07emT0B90vWcS-Yxma-15" value="Покупатели" style="rounded=0;whiteSpace=wrap;html=1;" parent="1" vertex="1">
          <mxGeometry x="882" y="898" width="120" height="60" as="geometry" />
        </mxCell>
        <mxCell id="-J07emT0B90vWcS-Yxma-16" value="Покупатели&lt;br&gt;(Продуктов)" style="shape=umlActor;verticalLabelPosition=bottom;verticalAlign=top;html=1;outlineConnect=0;" parent="1" vertex="1">
          <mxGeometry x="770" y="981" width="30" height="60" as="geometry" />
        </mxCell>
        <mxCell id="-J07emT0B90vWcS-Yxma-17" value="Покупатели&lt;br&gt;(дистрибьютеры)" style="shape=umlActor;verticalLabelPosition=bottom;verticalAlign=top;html=1;outlineConnect=0;" parent="1" vertex="1">
          <mxGeometry x="1110" y="981" width="30" height="60" as="geometry" />
        </mxCell>
        <mxCell id="-J07emT0B90vWcS-Yxma-18" value="Поставляют&lt;br&gt;продуктов&lt;br&gt;импортного&lt;br&gt;производства" style="text;html=1;align=center;verticalAlign=middle;resizable=0;points=[];autosize=1;strokeColor=none;fillColor=none;" parent="1" vertex="1">
          <mxGeometry x="105" y="1074" width="100" height="70" as="geometry" />
        </mxCell>
        <mxCell id="-J07emT0B90vWcS-Yxma-19" value="Поставляют&lt;br&gt;продуктов&lt;br&gt;отечественного&lt;br&gt;производства" style="text;html=1;align=center;verticalAlign=middle;resizable=0;points=[];autosize=1;strokeColor=none;fillColor=none;" parent="1" vertex="1">
          <mxGeometry x="310" y="1074" width="110" height="70" as="geometry" />
        </mxCell>
        <mxCell id="-J07emT0B90vWcS-Yxma-20" value="Оказывают&lt;br&gt;услуги&lt;br&gt;по доставке&amp;nbsp;&lt;br&gt;продуктов" style="text;html=1;align=center;verticalAlign=middle;resizable=0;points=[];autosize=1;strokeColor=none;fillColor=none;" parent="1" vertex="1">
          <mxGeometry x="561" y="1088" width="90" height="70" as="geometry" />
        </mxCell>
        <mxCell id="-J07emT0B90vWcS-Yxma-21" value="Приобретают&lt;br&gt;оптом" style="text;html=1;align=center;verticalAlign=middle;resizable=0;points=[];autosize=1;strokeColor=none;fillColor=none;" parent="1" vertex="1">
          <mxGeometry x="1075" y="1074" width="100" height="40" as="geometry" />
        </mxCell>
        <mxCell id="-J07emT0B90vWcS-Yxma-22" value="Приобретают&lt;br&gt;мелким&amp;nbsp;&lt;br&gt;оптом" style="text;html=1;align=center;verticalAlign=middle;resizable=0;points=[];autosize=1;strokeColor=none;fillColor=none;" parent="1" vertex="1">
          <mxGeometry x="735" y="1064" width="100" height="60" as="geometry" />
        </mxCell>
        <mxCell id="-J07emT0B90vWcS-Yxma-23" value="Поставляют&lt;br&gt;статистику&lt;br&gt;продаж" style="text;html=1;align=center;verticalAlign=middle;resizable=0;points=[];autosize=1;strokeColor=none;fillColor=none;" parent="1" vertex="1">
          <mxGeometry x="1120" y="942" width="90" height="60" as="geometry" />
        </mxCell>
        <mxCell id="-J07emT0B90vWcS-Yxma-24" value="Поставляют&lt;br&gt;статистику&lt;br&gt;продаж" style="text;html=1;align=center;verticalAlign=middle;resizable=0;points=[];autosize=1;strokeColor=none;fillColor=none;" parent="1" vertex="1">
          <mxGeometry x="700" y="942" width="90" height="60" as="geometry" />
        </mxCell>
        <mxCell id="-J07emT0B90vWcS-Yxma-25" value="" style="shape=partialRectangle;html=1;whiteSpace=wrap;connectable=0;strokeColor=inherit;overflow=hidden;fillColor=none;top=0;left=0;bottom=0;right=0;pointerEvents=1;fontSize=16;" parent="1" vertex="1">
          <mxGeometry x="275" y="1728" width="137" height="40" as="geometry">
            <mxRectangle width="137" height="40" as="alternateBounds" />
          </mxGeometry>
        </mxCell>
        <mxCell id="-J07emT0B90vWcS-Yxma-26" value="1" style="rounded=0;whiteSpace=wrap;html=1;" parent="1" vertex="1">
          <mxGeometry x="262" y="1498" width="130" height="40" as="geometry" />
        </mxCell>
        <mxCell id="-J07emT0B90vWcS-Yxma-27" value="2" style="rounded=0;whiteSpace=wrap;html=1;" parent="1" vertex="1">
          <mxGeometry x="262" y="1538" width="130" height="40" as="geometry" />
        </mxCell>
        <mxCell id="-J07emT0B90vWcS-Yxma-28" value="4" style="rounded=0;whiteSpace=wrap;html=1;" parent="1" vertex="1">
          <mxGeometry x="262" y="1618" width="130" height="40" as="geometry" />
        </mxCell>
        <mxCell id="-J07emT0B90vWcS-Yxma-29" value="3" style="rounded=0;whiteSpace=wrap;html=1;" parent="1" vertex="1">
          <mxGeometry x="262" y="1578" width="130" height="40" as="geometry" />
        </mxCell>
        <mxCell id="-J07emT0B90vWcS-Yxma-30" value="№" style="rounded=0;whiteSpace=wrap;html=1;" parent="1" vertex="1">
          <mxGeometry x="262" y="1458" width="130" height="40" as="geometry" />
        </mxCell>
        <mxCell id="-J07emT0B90vWcS-Yxma-31" value="Номер бизнес-процесса" style="rounded=0;whiteSpace=wrap;html=1;" parent="1" vertex="1">
          <mxGeometry x="392" y="1458" width="240" height="40" as="geometry" />
        </mxCell>
        <mxCell id="-J07emT0B90vWcS-Yxma-32" value="План-дост-Логистика" style="rounded=0;whiteSpace=wrap;html=1;" parent="1" vertex="1">
          <mxGeometry x="392" y="1498" width="240" height="40" as="geometry" />
        </mxCell>
        <mxCell id="-J07emT0B90vWcS-Yxma-33" value="склад-2" style="rounded=0;whiteSpace=wrap;html=1;" parent="1" vertex="1">
          <mxGeometry x="392" y="1538" width="240" height="40" as="geometry" />
        </mxCell>
        <mxCell id="-J07emT0B90vWcS-Yxma-34" value="прод-3" style="rounded=0;whiteSpace=wrap;html=1;" parent="1" vertex="1">
          <mxGeometry x="392" y="1578" width="240" height="40" as="geometry" />
        </mxCell>
        <mxCell id="-J07emT0B90vWcS-Yxma-35" value="Врасч-4" style="rounded=0;whiteSpace=wrap;html=1;" parent="1" vertex="1">
          <mxGeometry x="392" y="1618" width="240" height="40" as="geometry" />
        </mxCell>
        <mxCell id="-J07emT0B90vWcS-Yxma-36" value="название бизнес-процесса" style="rounded=0;whiteSpace=wrap;html=1;" parent="1" vertex="1">
          <mxGeometry x="632" y="1458" width="240" height="40" as="geometry" />
        </mxCell>
        <mxCell id="-J07emT0B90vWcS-Yxma-37" value="Планирование," style="rounded=0;whiteSpace=wrap;html=1;" parent="1" vertex="1">
          <mxGeometry x="632" y="1498" width="240" height="40" as="geometry" />
        </mxCell>
        <mxCell id="-J07emT0B90vWcS-Yxma-38" value="Складирование" style="rounded=0;whiteSpace=wrap;html=1;" parent="1" vertex="1">
          <mxGeometry x="632" y="1538" width="240" height="40" as="geometry" />
        </mxCell>
        <mxCell id="-J07emT0B90vWcS-Yxma-39" value="Продажи" style="rounded=0;whiteSpace=wrap;html=1;" parent="1" vertex="1">
          <mxGeometry x="632" y="1578" width="240" height="40" as="geometry" />
        </mxCell>
        <mxCell id="-J07emT0B90vWcS-Yxma-40" value="Взаиморасчеты с поставщиком и клиентами" style="rounded=0;whiteSpace=wrap;html=1;" parent="1" vertex="1">
          <mxGeometry x="632" y="1618" width="240" height="40" as="geometry" />
        </mxCell>
        <mxCell id="-J07emT0B90vWcS-Yxma-41" style="edgeStyle=orthogonalEdgeStyle;rounded=0;orthogonalLoop=1;jettySize=auto;html=1;exitX=0.5;exitY=1;exitDx=0;exitDy=0;" parent="1" source="-J07emT0B90vWcS-Yxma-42" target="-J07emT0B90vWcS-Yxma-45" edge="1">
          <mxGeometry relative="1" as="geometry" />
        </mxCell>
        <mxCell id="-J07emT0B90vWcS-Yxma-42" value="" style="shape=ellipse;html=1;fillColor=strokeColor;fontSize=18;fontColor=#ffffff;" parent="1" vertex="1">
          <mxGeometry x="1497" y="768" width="40" height="40" as="geometry" />
        </mxCell>
        <mxCell id="-J07emT0B90vWcS-Yxma-43" style="edgeStyle=orthogonalEdgeStyle;rounded=0;orthogonalLoop=1;jettySize=auto;html=1;entryX=0.5;entryY=0;entryDx=0;entryDy=0;entryPerimeter=0;" parent="1" source="-J07emT0B90vWcS-Yxma-45" target="-J07emT0B90vWcS-Yxma-46" edge="1">
          <mxGeometry relative="1" as="geometry" />
        </mxCell>
        <mxCell id="-J07emT0B90vWcS-Yxma-44" style="edgeStyle=orthogonalEdgeStyle;rounded=0;orthogonalLoop=1;jettySize=auto;html=1;entryX=0.5;entryY=0;entryDx=0;entryDy=0;entryPerimeter=0;" parent="1" source="-J07emT0B90vWcS-Yxma-45" edge="1">
          <mxGeometry relative="1" as="geometry">
            <mxPoint x="1437" y="865" as="targetPoint" />
          </mxGeometry>
        </mxCell>
        <mxCell id="-J07emT0B90vWcS-Yxma-45" value="" style="html=1;points=[];perimeter=orthogonalPerimeter;fillColor=strokeColor;direction=south;" parent="1" vertex="1">
          <mxGeometry x="1387" y="838" width="263" height="5" as="geometry" />
        </mxCell>
        <mxCell id="-J07emT0B90vWcS-Yxma-46" value="1б&lt;br&gt;получение внешней&lt;br&gt;статистики продаж" style="strokeWidth=2;html=1;shape=mxgraph.flowchart.terminator;whiteSpace=wrap;" parent="1" vertex="1">
          <mxGeometry x="1517" y="867.6" width="134" height="80.4" as="geometry" />
        </mxCell>
        <mxCell id="-J07emT0B90vWcS-Yxma-47" value="" style="html=1;points=[];perimeter=orthogonalPerimeter;fillColor=strokeColor;direction=south;" parent="1" vertex="1">
          <mxGeometry x="1387" y="964" width="261" height="5" as="geometry" />
        </mxCell>
        <mxCell id="-J07emT0B90vWcS-Yxma-48" value="1в&lt;br&gt;получение внутренней&amp;nbsp;&lt;br&gt;статистики продаж" style="strokeWidth=2;html=1;shape=mxgraph.flowchart.terminator;whiteSpace=wrap;" parent="1" vertex="1">
          <mxGeometry x="1373" y="867.6" width="134" height="80.4" as="geometry" />
        </mxCell>
        <mxCell id="xM0Mh-V16dNC62WRCGIh-14" style="edgeStyle=orthogonalEdgeStyle;rounded=0;orthogonalLoop=1;jettySize=auto;html=1;entryX=0;entryY=0.5;entryDx=0;entryDy=0;" edge="1" parent="1" source="-J07emT0B90vWcS-Yxma-50" target="-J07emT0B90vWcS-Yxma-55">
          <mxGeometry relative="1" as="geometry">
            <Array as="points">
              <mxPoint x="1850" y="1031" />
              <mxPoint x="1850" y="828" />
            </Array>
          </mxGeometry>
        </mxCell>
        <mxCell id="-J07emT0B90vWcS-Yxma-50" value="2&lt;br&gt;расчет потребности&lt;br&gt;в товаре" style="strokeWidth=2;html=1;shape=mxgraph.flowchart.terminator;whiteSpace=wrap;" parent="1" vertex="1">
          <mxGeometry x="1401.75" y="999" width="190.5" height="63" as="geometry" />
        </mxCell>
        <mxCell id="-J07emT0B90vWcS-Yxma-51" value="" style="endArrow=none;dashed=1;html=1;rounded=0;" parent="1" source="-J07emT0B90vWcS-Yxma-50" target="-J07emT0B90vWcS-Yxma-52" edge="1">
          <mxGeometry width="50" height="50" relative="1" as="geometry">
            <mxPoint x="1641" y="1032" as="sourcePoint" />
            <mxPoint x="1795.1764705882354" y="1032" as="targetPoint" />
          </mxGeometry>
        </mxCell>
        <mxCell id="-J07emT0B90vWcS-Yxma-52" value="таблица&lt;br&gt;потребностей в товаре" style="rounded=0;whiteSpace=wrap;html=1;" parent="1" vertex="1">
          <mxGeometry x="1658.996470588235" y="1002" width="120" height="60" as="geometry" />
        </mxCell>
        <mxCell id="-J07emT0B90vWcS-Yxma-53" value="&lt;span style=&quot;font-size: 32px;&quot;&gt;Менеджер отдела закупок&lt;/span&gt;" style="text;html=1;align=center;verticalAlign=middle;resizable=0;points=[];autosize=1;strokeColor=none;fillColor=none;" parent="1" vertex="1">
          <mxGeometry x="1929" y="712" width="414" height="54" as="geometry" />
        </mxCell>
        <mxCell id="-J07emT0B90vWcS-Yxma-54" style="edgeStyle=orthogonalEdgeStyle;rounded=0;orthogonalLoop=1;jettySize=auto;html=1;exitX=0.5;exitY=1;exitDx=0;exitDy=0;entryX=0.5;entryY=0;entryDx=0;entryDy=0;" parent="1" source="-J07emT0B90vWcS-Yxma-55" target="-J07emT0B90vWcS-Yxma-57" edge="1">
          <mxGeometry relative="1" as="geometry" />
        </mxCell>
        <mxCell id="-J07emT0B90vWcS-Yxma-55" value="3&lt;br&gt;ввод в систему&lt;br&gt;поставщиков" style="ellipse;whiteSpace=wrap;html=1;" parent="1" vertex="1">
          <mxGeometry x="2055" y="788" width="120" height="80" as="geometry" />
        </mxCell>
        <mxCell id="-J07emT0B90vWcS-Yxma-56" style="edgeStyle=orthogonalEdgeStyle;rounded=0;orthogonalLoop=1;jettySize=auto;html=1;exitX=0.5;exitY=1;exitDx=0;exitDy=0;entryX=0.5;entryY=0;entryDx=0;entryDy=0;" parent="1" source="-J07emT0B90vWcS-Yxma-57" target="-J07emT0B90vWcS-Yxma-59" edge="1">
          <mxGeometry relative="1" as="geometry" />
        </mxCell>
        <mxCell id="-J07emT0B90vWcS-Yxma-57" value="4&lt;br&gt;анализ&lt;br&gt;предложений&amp;nbsp;&lt;br&gt;поставщиков" style="ellipse;whiteSpace=wrap;html=1;" parent="1" vertex="1">
          <mxGeometry x="2055" y="901" width="120" height="80" as="geometry" />
        </mxCell>
        <mxCell id="-J07emT0B90vWcS-Yxma-58" style="edgeStyle=orthogonalEdgeStyle;rounded=0;orthogonalLoop=1;jettySize=auto;html=1;exitX=0.5;exitY=1;exitDx=0;exitDy=0;entryX=0.5;entryY=0;entryDx=0;entryDy=0;" parent="1" source="-J07emT0B90vWcS-Yxma-59" target="-J07emT0B90vWcS-Yxma-61" edge="1">
          <mxGeometry relative="1" as="geometry" />
        </mxCell>
        <mxCell id="-J07emT0B90vWcS-Yxma-59" value="5&lt;br&gt;выбор&lt;br&gt;поставщиков" style="ellipse;whiteSpace=wrap;html=1;" parent="1" vertex="1">
          <mxGeometry x="2055" y="1018" width="120" height="80" as="geometry" />
        </mxCell>
        <mxCell id="xM0Mh-V16dNC62WRCGIh-15" style="edgeStyle=orthogonalEdgeStyle;rounded=0;orthogonalLoop=1;jettySize=auto;html=1;exitX=0.5;exitY=1;exitDx=0;exitDy=0;entryX=0;entryY=0.5;entryDx=0;entryDy=0;" edge="1" parent="1" source="-J07emT0B90vWcS-Yxma-61" target="-J07emT0B90vWcS-Yxma-68">
          <mxGeometry relative="1" as="geometry">
            <Array as="points">
              <mxPoint x="2115" y="1240" />
              <mxPoint x="2400" y="1240" />
              <mxPoint x="2400" y="809" />
            </Array>
          </mxGeometry>
        </mxCell>
        <mxCell id="-J07emT0B90vWcS-Yxma-61" value="6&amp;nbsp;&lt;br&gt;формирование&lt;br&gt;графика поставок&lt;br&gt;без указания&lt;br&gt;количества" style="ellipse;whiteSpace=wrap;html=1;" parent="1" vertex="1">
          <mxGeometry x="2055" y="1138" width="120" height="80" as="geometry" />
        </mxCell>
        <mxCell id="-J07emT0B90vWcS-Yxma-62" value="" style="endArrow=none;dashed=1;html=1;rounded=0;exitX=1;exitY=0.5;exitDx=0;exitDy=0;entryX=0;entryY=0.5;entryDx=0;entryDy=0;" parent="1" source="-J07emT0B90vWcS-Yxma-55" target="-J07emT0B90vWcS-Yxma-63" edge="1">
          <mxGeometry width="50" height="50" relative="1" as="geometry">
            <mxPoint x="2175" y="828" as="sourcePoint" />
            <mxPoint x="2271" y="828" as="targetPoint" />
          </mxGeometry>
        </mxCell>
        <mxCell id="-J07emT0B90vWcS-Yxma-63" value="Прайс-листы,&lt;br&gt;контакты,&lt;br&gt;поставщиков" style="rounded=0;whiteSpace=wrap;html=1;" parent="1" vertex="1">
          <mxGeometry x="2223" y="798" width="120" height="60" as="geometry" />
        </mxCell>
        <mxCell id="-J07emT0B90vWcS-Yxma-64" value="" style="endArrow=none;dashed=1;html=1;rounded=0;exitX=1;exitY=0.5;exitDx=0;exitDy=0;entryX=0.015;entryY=0.5;entryDx=0;entryDy=0;entryPerimeter=0;" parent="1" source="-J07emT0B90vWcS-Yxma-59" target="-J07emT0B90vWcS-Yxma-65" edge="1">
          <mxGeometry width="50" height="50" relative="1" as="geometry">
            <mxPoint x="2175" y="1058.1399999999999" as="sourcePoint" />
            <mxPoint x="2280" y="1058" as="targetPoint" />
          </mxGeometry>
        </mxCell>
        <mxCell id="-J07emT0B90vWcS-Yxma-65" value="Список&lt;br&gt;поставщиков с&amp;nbsp;&lt;br&gt;расстановкой&lt;br&gt;приоритетов" style="rounded=0;whiteSpace=wrap;html=1;" parent="1" vertex="1">
          <mxGeometry x="2223" y="1028" width="120" height="60" as="geometry" />
        </mxCell>
        <mxCell id="-J07emT0B90vWcS-Yxma-66" value="" style="endArrow=none;dashed=1;html=1;rounded=0;exitX=1;exitY=0.5;exitDx=0;exitDy=0;entryX=0.015;entryY=0.5;entryDx=0;entryDy=0;entryPerimeter=0;" parent="1" target="-J07emT0B90vWcS-Yxma-67" edge="1">
          <mxGeometry width="50" height="50" relative="1" as="geometry">
            <mxPoint x="2175" y="1174" as="sourcePoint" />
            <mxPoint x="2280" y="1174" as="targetPoint" />
          </mxGeometry>
        </mxCell>
        <mxCell id="-J07emT0B90vWcS-Yxma-67" value="График&lt;br&gt;поставок" style="rounded=0;whiteSpace=wrap;html=1;" parent="1" vertex="1">
          <mxGeometry x="2223" y="1144" width="120" height="60" as="geometry" />
        </mxCell>
        <mxCell id="xM0Mh-V16dNC62WRCGIh-3" style="edgeStyle=orthogonalEdgeStyle;rounded=0;orthogonalLoop=1;jettySize=auto;html=1;" edge="1" parent="1" source="-J07emT0B90vWcS-Yxma-68" target="xM0Mh-V16dNC62WRCGIh-2">
          <mxGeometry relative="1" as="geometry" />
        </mxCell>
        <mxCell id="-J07emT0B90vWcS-Yxma-68" value="7&lt;br&gt;расчет необходимого&lt;br&gt;количества закупок" style="ellipse;whiteSpace=wrap;html=1;" parent="1" vertex="1">
          <mxGeometry x="2550" y="788" width="207" height="41" as="geometry" />
        </mxCell>
        <mxCell id="xM0Mh-V16dNC62WRCGIh-1" value="&lt;font style=&quot;font-size: 32px;&quot;&gt;Менеджер группы логистики&lt;/font&gt;" style="text;html=1;align=center;verticalAlign=middle;resizable=0;points=[];autosize=1;strokeColor=none;fillColor=none;" vertex="1" parent="1">
          <mxGeometry x="2430" y="716" width="450" height="50" as="geometry" />
        </mxCell>
        <mxCell id="xM0Mh-V16dNC62WRCGIh-5" style="edgeStyle=orthogonalEdgeStyle;rounded=0;orthogonalLoop=1;jettySize=auto;html=1;exitX=0.5;exitY=1;exitDx=0;exitDy=0;" edge="1" parent="1" source="xM0Mh-V16dNC62WRCGIh-2" target="xM0Mh-V16dNC62WRCGIh-4">
          <mxGeometry relative="1" as="geometry" />
        </mxCell>
        <mxCell id="xM0Mh-V16dNC62WRCGIh-2" value="8&lt;br&gt;Формирование заказов поставщикам" style="ellipse;whiteSpace=wrap;html=1;" vertex="1" parent="1">
          <mxGeometry x="2540.5" y="860" width="226" height="50" as="geometry" />
        </mxCell>
        <mxCell id="xM0Mh-V16dNC62WRCGIh-17" style="edgeStyle=orthogonalEdgeStyle;rounded=0;orthogonalLoop=1;jettySize=auto;html=1;" edge="1" parent="1" source="xM0Mh-V16dNC62WRCGIh-4" target="xM0Mh-V16dNC62WRCGIh-16">
          <mxGeometry relative="1" as="geometry" />
        </mxCell>
        <mxCell id="xM0Mh-V16dNC62WRCGIh-4" value="9&lt;br&gt;Расчет затрат на&lt;br&gt;сертификацию" style="ellipse;whiteSpace=wrap;html=1;" vertex="1" parent="1">
          <mxGeometry x="2535" y="928" width="237" height="42" as="geometry" />
        </mxCell>
        <mxCell id="xM0Mh-V16dNC62WRCGIh-7" value="сертификацию импортных&lt;br/&gt;товаров, если продукты импортные" style="rounded=0;whiteSpace=wrap;html=1;" vertex="1" parent="1">
          <mxGeometry x="2840" y="918.5" width="120" height="60" as="geometry" />
        </mxCell>
        <mxCell id="xM0Mh-V16dNC62WRCGIh-10" value="" style="endArrow=none;dashed=1;html=1;rounded=0;entryX=0;entryY=0.5;entryDx=0;entryDy=0;exitX=1;exitY=0.5;exitDx=0;exitDy=0;" edge="1" parent="1" source="xM0Mh-V16dNC62WRCGIh-4" target="xM0Mh-V16dNC62WRCGIh-7">
          <mxGeometry width="50" height="50" relative="1" as="geometry">
            <mxPoint x="2770" y="980" as="sourcePoint" />
            <mxPoint x="2820" y="930" as="targetPoint" />
          </mxGeometry>
        </mxCell>
        <mxCell id="xM0Mh-V16dNC62WRCGIh-11" value="" style="endArrow=none;html=1;rounded=0;entryX=0.42;entryY=1.037;entryDx=0;entryDy=0;entryPerimeter=0;" edge="1" parent="1" target="xM0Mh-V16dNC62WRCGIh-13">
          <mxGeometry width="50" height="50" relative="1" as="geometry">
            <mxPoint x="2403" y="1982.2222222222222" as="sourcePoint" />
            <mxPoint x="2390" y="650.7692307692307" as="targetPoint" />
            <Array as="points">
              <mxPoint x="2400" y="1310" />
            </Array>
          </mxGeometry>
        </mxCell>
        <mxCell id="xM0Mh-V16dNC62WRCGIh-12" value="" style="endArrow=none;html=1;rounded=0;" edge="1" parent="1">
          <mxGeometry width="50" height="50" relative="1" as="geometry">
            <mxPoint x="1850" y="1995.7142857142858" as="sourcePoint" />
            <mxPoint x="1850" y="640" as="targetPoint" />
          </mxGeometry>
        </mxCell>
        <mxCell id="xM0Mh-V16dNC62WRCGIh-13" value="&lt;font style=&quot;font-size: 32px;&quot;&gt;Планирование закупок и формирование&amp;nbsp; заказов поставщикам(1Пл_3ак)&lt;/font&gt;" style="rounded=0;whiteSpace=wrap;html=1;" vertex="1" parent="1">
          <mxGeometry x="1290" y="580" width="2640" height="60" as="geometry" />
        </mxCell>
        <mxCell id="xM0Mh-V16dNC62WRCGIh-21" style="edgeStyle=orthogonalEdgeStyle;rounded=0;orthogonalLoop=1;jettySize=auto;html=1;" edge="1" parent="1" source="xM0Mh-V16dNC62WRCGIh-16" target="xM0Mh-V16dNC62WRCGIh-20">
          <mxGeometry relative="1" as="geometry" />
        </mxCell>
        <mxCell id="xM0Mh-V16dNC62WRCGIh-16" value="10&lt;br&gt;Формирование заказов поставщикам" style="ellipse;whiteSpace=wrap;html=1;" vertex="1" parent="1">
          <mxGeometry x="2548.5" y="1018" width="210" height="51" as="geometry" />
        </mxCell>
        <mxCell id="xM0Mh-V16dNC62WRCGIh-18" value="при превышении затрат на&lt;br/&gt;сертификацию&amp;nbsp;" style="rounded=0;whiteSpace=wrap;html=1;" vertex="1" parent="1">
          <mxGeometry x="2840" y="1014" width="120" height="60" as="geometry" />
        </mxCell>
        <mxCell id="xM0Mh-V16dNC62WRCGIh-19" value="" style="endArrow=none;dashed=1;html=1;rounded=0;exitX=1;exitY=0.5;exitDx=0;exitDy=0;entryX=0;entryY=0.5;entryDx=0;entryDy=0;" edge="1" parent="1" source="xM0Mh-V16dNC62WRCGIh-16" target="xM0Mh-V16dNC62WRCGIh-18">
          <mxGeometry width="50" height="50" relative="1" as="geometry">
            <mxPoint x="2770" y="1060" as="sourcePoint" />
            <mxPoint x="2830" y="1050" as="targetPoint" />
          </mxGeometry>
        </mxCell>
        <mxCell id="xM0Mh-V16dNC62WRCGIh-23" style="edgeStyle=orthogonalEdgeStyle;rounded=0;orthogonalLoop=1;jettySize=auto;html=1;entryX=0.5;entryY=0;entryDx=0;entryDy=0;" edge="1" parent="1" source="xM0Mh-V16dNC62WRCGIh-20" target="xM0Mh-V16dNC62WRCGIh-22">
          <mxGeometry relative="1" as="geometry" />
        </mxCell>
        <mxCell id="xM0Mh-V16dNC62WRCGIh-20" value="11&lt;br&gt;Подпись заказа" style="ellipse;whiteSpace=wrap;html=1;" vertex="1" parent="1">
          <mxGeometry x="2553.5" y="1114" width="200" height="37" as="geometry" />
        </mxCell>
        <mxCell id="xM0Mh-V16dNC62WRCGIh-65" style="edgeStyle=orthogonalEdgeStyle;rounded=0;orthogonalLoop=1;jettySize=auto;html=1;entryX=0.5;entryY=0;entryDx=0;entryDy=0;" edge="1" parent="1" source="xM0Mh-V16dNC62WRCGIh-22" target="xM0Mh-V16dNC62WRCGIh-25">
          <mxGeometry relative="1" as="geometry">
            <Array as="points">
              <mxPoint x="2654" y="1260" />
              <mxPoint x="2928" y="1260" />
            </Array>
          </mxGeometry>
        </mxCell>
        <mxCell id="xM0Mh-V16dNC62WRCGIh-73" style="edgeStyle=orthogonalEdgeStyle;rounded=0;orthogonalLoop=1;jettySize=auto;html=1;" edge="1" parent="1" source="xM0Mh-V16dNC62WRCGIh-22" target="xM0Mh-V16dNC62WRCGIh-72">
          <mxGeometry relative="1" as="geometry">
            <Array as="points">
              <mxPoint x="2800" y="1210" />
              <mxPoint x="2800" y="1535" />
              <mxPoint x="2848" y="1535" />
            </Array>
          </mxGeometry>
        </mxCell>
        <mxCell id="xM0Mh-V16dNC62WRCGIh-22" value="12&lt;br&gt;Направление заказа менеджеру отдела закупок" style="ellipse;whiteSpace=wrap;html=1;" vertex="1" parent="1">
          <mxGeometry x="2543.5" y="1180" width="220" height="60" as="geometry" />
        </mxCell>
        <mxCell id="xM0Mh-V16dNC62WRCGIh-25" value="Расчёт необходимого количество закупок" style="ellipse;whiteSpace=wrap;html=1;" vertex="1" parent="1">
          <mxGeometry x="2820" y="1320" width="216" height="80" as="geometry" />
        </mxCell>
        <mxCell id="xM0Mh-V16dNC62WRCGIh-36" style="edgeStyle=orthogonalEdgeStyle;rounded=0;orthogonalLoop=1;jettySize=auto;html=1;" edge="1" parent="1" source="xM0Mh-V16dNC62WRCGIh-28" target="xM0Mh-V16dNC62WRCGIh-35">
          <mxGeometry relative="1" as="geometry" />
        </mxCell>
        <mxCell id="xM0Mh-V16dNC62WRCGIh-28" value="" style="strokeWidth=2;html=1;shape=mxgraph.flowchart.annotation_2;align=left;labelPosition=right;pointerEvents=1;rotation=-90;" vertex="1" parent="1">
          <mxGeometry x="2903" y="1380" width="50" height="100" as="geometry" />
        </mxCell>
        <mxCell id="xM0Mh-V16dNC62WRCGIh-34" style="edgeStyle=orthogonalEdgeStyle;rounded=0;orthogonalLoop=1;jettySize=auto;html=1;entryX=0.363;entryY=0.501;entryDx=0;entryDy=0;entryPerimeter=0;" edge="1" parent="1" source="xM0Mh-V16dNC62WRCGIh-25" target="xM0Mh-V16dNC62WRCGIh-28">
          <mxGeometry relative="1" as="geometry" />
        </mxCell>
        <mxCell id="xM0Mh-V16dNC62WRCGIh-38" style="edgeStyle=orthogonalEdgeStyle;rounded=0;orthogonalLoop=1;jettySize=auto;html=1;" edge="1" parent="1" source="xM0Mh-V16dNC62WRCGIh-35" target="xM0Mh-V16dNC62WRCGIh-37">
          <mxGeometry relative="1" as="geometry" />
        </mxCell>
        <mxCell id="xM0Mh-V16dNC62WRCGIh-35" value="Формирование заказов&lt;br/&gt;поставщикам" style="ellipse;whiteSpace=wrap;html=1;" vertex="1" parent="1">
          <mxGeometry x="2868" y="1510" width="120" height="80" as="geometry" />
        </mxCell>
        <mxCell id="xM0Mh-V16dNC62WRCGIh-39" style="edgeStyle=orthogonalEdgeStyle;rounded=0;orthogonalLoop=1;jettySize=auto;html=1;entryX=0.5;entryY=1;entryDx=0;entryDy=0;" edge="1" parent="1" source="xM0Mh-V16dNC62WRCGIh-37" target="xM0Mh-V16dNC62WRCGIh-64">
          <mxGeometry relative="1" as="geometry">
            <mxPoint x="2545" y="1632" as="targetPoint" />
          </mxGeometry>
        </mxCell>
        <mxCell id="xM0Mh-V16dNC62WRCGIh-40" style="edgeStyle=orthogonalEdgeStyle;rounded=0;orthogonalLoop=1;jettySize=auto;html=1;exitX=1;exitY=0.5;exitDx=0;exitDy=0;entryX=1;entryY=0.5;entryDx=0;entryDy=0;" edge="1" parent="1" source="xM0Mh-V16dNC62WRCGIh-37" target="xM0Mh-V16dNC62WRCGIh-20">
          <mxGeometry relative="1" as="geometry">
            <mxPoint x="3240" y="1120" as="targetPoint" />
            <Array as="points">
              <mxPoint x="3290" y="1710" />
              <mxPoint x="3290" y="1133" />
            </Array>
          </mxGeometry>
        </mxCell>
        <mxCell id="xM0Mh-V16dNC62WRCGIh-37" value="проверки условия" style="rhombus;whiteSpace=wrap;html=1;" vertex="1" parent="1">
          <mxGeometry x="2888" y="1670" width="80" height="80" as="geometry" />
        </mxCell>
        <mxCell id="xM0Mh-V16dNC62WRCGIh-41" value="Россия" style="text;html=1;align=center;verticalAlign=middle;resizable=0;points=[];autosize=1;strokeColor=none;fillColor=none;" vertex="1" parent="1">
          <mxGeometry x="3130" y="1658" width="60" height="30" as="geometry" />
        </mxCell>
        <mxCell id="xM0Mh-V16dNC62WRCGIh-42" value="Импорт" style="text;html=1;align=center;verticalAlign=middle;resizable=0;points=[];autosize=1;strokeColor=none;fillColor=none;" vertex="1" parent="1">
          <mxGeometry x="2688.5" y="1670" width="70" height="30" as="geometry" />
        </mxCell>
        <mxCell id="xM0Mh-V16dNC62WRCGIh-45" style="edgeStyle=orthogonalEdgeStyle;rounded=0;orthogonalLoop=1;jettySize=auto;html=1;entryX=0.5;entryY=1;entryDx=0;entryDy=0;exitX=0.5;exitY=0;exitDx=0;exitDy=0;" edge="1" parent="1" source="xM0Mh-V16dNC62WRCGIh-64" target="xM0Mh-V16dNC62WRCGIh-63">
          <mxGeometry relative="1" as="geometry">
            <mxPoint x="2545" y="1590" as="sourcePoint" />
            <mxPoint x="2542.75" y="1522" as="targetPoint" />
          </mxGeometry>
        </mxCell>
        <mxCell id="xM0Mh-V16dNC62WRCGIh-49" style="edgeStyle=orthogonalEdgeStyle;rounded=0;orthogonalLoop=1;jettySize=auto;html=1;exitX=0.5;exitY=0;exitDx=0;exitDy=0;" edge="1" parent="1" source="xM0Mh-V16dNC62WRCGIh-63" target="xM0Mh-V16dNC62WRCGIh-48">
          <mxGeometry relative="1" as="geometry">
            <mxPoint x="2542.8" y="1480" as="sourcePoint" />
          </mxGeometry>
        </mxCell>
        <mxCell id="xM0Mh-V16dNC62WRCGIh-50" style="edgeStyle=orthogonalEdgeStyle;rounded=0;orthogonalLoop=1;jettySize=auto;html=1;entryX=0.78;entryY=0.99;entryDx=0;entryDy=0;entryPerimeter=0;" edge="1" parent="1" source="xM0Mh-V16dNC62WRCGIh-48" target="xM0Mh-V16dNC62WRCGIh-54">
          <mxGeometry relative="1" as="geometry">
            <mxPoint x="2380" y="1300" as="targetPoint" />
            <Array as="points">
              <mxPoint x="2430" y="1410" />
              <mxPoint x="2430" y="1254" />
            </Array>
          </mxGeometry>
        </mxCell>
        <mxCell id="xM0Mh-V16dNC62WRCGIh-48" value="проверки условия" style="rhombus;whiteSpace=wrap;html=1;" vertex="1" parent="1">
          <mxGeometry x="2502.5" y="1380" width="85" height="60" as="geometry" />
        </mxCell>
        <mxCell id="xM0Mh-V16dNC62WRCGIh-52" value="Больше х%" style="text;html=1;align=center;verticalAlign=middle;resizable=0;points=[];autosize=1;strokeColor=none;fillColor=none;" vertex="1" parent="1">
          <mxGeometry x="2415" y="1370" width="90" height="30" as="geometry" />
        </mxCell>
        <mxCell id="xM0Mh-V16dNC62WRCGIh-53" value="Меньше х%" style="text;html=1;align=center;verticalAlign=middle;resizable=0;points=[];autosize=1;strokeColor=none;fillColor=none;" vertex="1" parent="1">
          <mxGeometry x="2598.5" y="1370" width="90" height="30" as="geometry" />
        </mxCell>
        <mxCell id="xM0Mh-V16dNC62WRCGIh-55" style="edgeStyle=orthogonalEdgeStyle;rounded=0;orthogonalLoop=1;jettySize=auto;html=1;entryX=0;entryY=0.5;entryDx=0;entryDy=0;" edge="1" parent="1" source="xM0Mh-V16dNC62WRCGIh-54" target="xM0Mh-V16dNC62WRCGIh-2">
          <mxGeometry relative="1" as="geometry">
            <Array as="points">
              <mxPoint x="2461" y="885" />
            </Array>
          </mxGeometry>
        </mxCell>
        <mxCell id="xM0Mh-V16dNC62WRCGIh-54" value="" style="strokeWidth=2;html=1;shape=mxgraph.flowchart.annotation_2;align=left;labelPosition=right;pointerEvents=1;rotation=90;" vertex="1" parent="1">
          <mxGeometry x="2435.5" y="1190" width="50" height="100" as="geometry" />
        </mxCell>
        <mxCell id="xM0Mh-V16dNC62WRCGIh-62" style="edgeStyle=orthogonalEdgeStyle;rounded=0;orthogonalLoop=1;jettySize=auto;html=1;entryX=1;entryY=0.5;entryDx=0;entryDy=0;" edge="1" parent="1" source="xM0Mh-V16dNC62WRCGIh-59" target="xM0Mh-V16dNC62WRCGIh-20">
          <mxGeometry relative="1" as="geometry">
            <Array as="points">
              <mxPoint x="2644" y="1250" />
              <mxPoint x="2774" y="1250" />
              <mxPoint x="2774" y="1160" />
              <mxPoint x="2754" y="1160" />
            </Array>
          </mxGeometry>
        </mxCell>
        <mxCell id="xM0Mh-V16dNC62WRCGIh-59" value="" style="strokeWidth=2;html=1;shape=mxgraph.flowchart.annotation_2;align=left;labelPosition=right;pointerEvents=1;rotation=90;" vertex="1" parent="1">
          <mxGeometry x="2618.5" y="1260" width="50" height="100" as="geometry" />
        </mxCell>
        <mxCell id="xM0Mh-V16dNC62WRCGIh-60" style="edgeStyle=orthogonalEdgeStyle;rounded=0;orthogonalLoop=1;jettySize=auto;html=1;entryX=0.5;entryY=1;entryDx=0;entryDy=0;entryPerimeter=0;" edge="1" parent="1" source="xM0Mh-V16dNC62WRCGIh-48" target="xM0Mh-V16dNC62WRCGIh-59">
          <mxGeometry relative="1" as="geometry">
            <Array as="points">
              <mxPoint x="2540" y="1358" />
              <mxPoint x="2574" y="1358" />
              <mxPoint x="2574" y="1310" />
            </Array>
          </mxGeometry>
        </mxCell>
        <mxCell id="xM0Mh-V16dNC62WRCGIh-61" style="edgeStyle=orthogonalEdgeStyle;rounded=0;orthogonalLoop=1;jettySize=auto;html=1;entryX=0.5;entryY=0;entryDx=0;entryDy=0;entryPerimeter=0;" edge="1" parent="1" source="xM0Mh-V16dNC62WRCGIh-48" target="xM0Mh-V16dNC62WRCGIh-59">
          <mxGeometry relative="1" as="geometry" />
        </mxCell>
        <mxCell id="xM0Mh-V16dNC62WRCGIh-63" value="Проверка суммы затрат на&lt;br style=&quot;border-color: var(--border-color);&quot;&gt;сертификацию на непревышение внутрифирменной нормы" style="ellipse;whiteSpace=wrap;html=1;" vertex="1" parent="1">
          <mxGeometry x="2415" y="1478" width="260" height="80" as="geometry" />
        </mxCell>
        <mxCell id="xM0Mh-V16dNC62WRCGIh-64" value="&amp;nbsp;Расчет затрат на&lt;br style=&quot;border-color: var(--border-color);&quot;&gt;сертификацию импортных товаров" style="ellipse;whiteSpace=wrap;html=1;" vertex="1" parent="1">
          <mxGeometry x="2449.25" y="1608" width="191.5" height="80" as="geometry" />
        </mxCell>
        <mxCell id="xM0Mh-V16dNC62WRCGIh-66" value="&lt;font style=&quot;font-size: 32px;&quot;&gt;Менеджер группы планирования и маркетинга&lt;/font&gt;" style="text;html=1;strokeColor=none;fillColor=none;align=center;verticalAlign=middle;whiteSpace=wrap;rounded=0;" vertex="1" parent="1">
          <mxGeometry x="1324" y="680" width="520" height="70" as="geometry" />
        </mxCell>
        <mxCell id="xM0Mh-V16dNC62WRCGIh-70" value="" style="endArrow=none;dashed=1;html=1;rounded=0;entryX=0;entryY=0.5;entryDx=0;entryDy=0;exitX=1;exitY=0.5;exitDx=0;exitDy=0;" edge="1" parent="1" source="xM0Mh-V16dNC62WRCGIh-22">
          <mxGeometry width="50" height="50" relative="1" as="geometry">
            <mxPoint x="2790" y="1250" as="sourcePoint" />
            <mxPoint x="2867.9999999999773" y="1210" as="targetPoint" />
          </mxGeometry>
        </mxCell>
        <mxCell id="xM0Mh-V16dNC62WRCGIh-71" value="Заказ поставщику" style="rounded=0;whiteSpace=wrap;html=1;" vertex="1" parent="1">
          <mxGeometry x="2860" y="1180" width="120" height="60" as="geometry" />
        </mxCell>
        <mxCell id="xM0Mh-V16dNC62WRCGIh-75" style="edgeStyle=orthogonalEdgeStyle;rounded=0;orthogonalLoop=1;jettySize=auto;html=1;" edge="1" parent="1" source="xM0Mh-V16dNC62WRCGIh-72" target="xM0Mh-V16dNC62WRCGIh-74">
          <mxGeometry relative="1" as="geometry" />
        </mxCell>
        <mxCell id="xM0Mh-V16dNC62WRCGIh-72" value="13&lt;br&gt;Направление заказа&lt;br/&gt;поставщику" style="ellipse;whiteSpace=wrap;html=1;" vertex="1" parent="1">
          <mxGeometry x="2675" y="1920" width="345" height="80" as="geometry" />
        </mxCell>
        <mxCell id="xM0Mh-V16dNC62WRCGIh-74" value="" style="ellipse;html=1;shape=endState;fillColor=strokeColor;" vertex="1" parent="1">
          <mxGeometry x="2816" y="2050" width="63.75" height="50" as="geometry" />
        </mxCell>
      </root>
    </mxGraphModel>
  </diagram>
</mxfile>
